<?xml version="1.0" standalone="no"?>
<!DOCTYPE svg PUBLIC "-//W3C//DTD SVG 20010904//EN"
 "http://www.w3.org/TR/2001/REC-SVG-20010904/DTD/svg10.dtd">
<svg version="1.0" xmlns="http://www.w3.org/2000/svg"
 width="500.000000pt" height="500.000000pt" viewBox="0 0 500.000000 500.000000"
 preserveAspectRatio="xMidYMid meet">

<g transform="translate(0.000000,500.000000) scale(0.100000,-0.100000)"
fill="#000000" stroke="none">
<path d="M2409 3638 c-380 -34 -715 -334 -811 -725 -28 -117 -30 -312 -4 -428
44 -193 122 -331 273 -482 102 -102 122 -117 215 -162 283 -137 556 -138 834
-1 177 88 348 272 433 467 55 126 75 231 75 383 0 210 -47 367 -159 535 -192
288 -515 444 -856 413z m247 -23 c94 -18 204 -53 204 -65 0 -5 -10 -16 -21
-24 -20 -14 -27 -12 -81 15 -32 16 -98 43 -146 59 -96 33 -79 39 44 15z m-196
-99 l0 -79 -62 7 c-34 3 -63 8 -65 10 -8 8 38 88 74 127 45 50 53 41 53 -65z
m117 -14 c14 -24 23 -45 20 -48 -3 -3 -29 -8 -59 -11 l-55 -5 -7 32 c-3 18 -6
60 -6 93 l0 61 41 -39 c22 -22 52 -59 66 -83z m-277 94 c-20 -8 -59 -25 -88
-40 -49 -25 -72 -27 -72 -6 0 11 145 59 175 59 12 0 7 -5 -15 -13z m86 -22
c-14 -16 -36 -48 -48 -71 -16 -30 -29 -43 -44 -43 -26 0 -84 20 -84 29 0 17
187 127 199 116 1 -2 -9 -16 -23 -31z m244 -24 c26 -16 56 -41 69 -54 l23 -24
-34 -7 c-18 -3 -41 -9 -50 -11 -12 -4 -22 5 -34 28 -9 18 -34 55 -56 81 l-40
48 38 -16 c21 -9 59 -29 84 -45z m-330 22 c-13 -9 -43 -31 -67 -49 -35 -27
-43 -30 -53 -18 -10 12 0 21 61 50 80 38 98 43 59 17z m424 -30 l79 -36 -30
-14 c-28 -13 -32 -12 -99 38 -38 29 -71 55 -74 57 -10 11 47 -10 124 -45z
m-586 -26 c-1 -2 -23 -16 -48 -33 -53 -36 -143 -122 -187 -178 l-31 -39 -21
34 -21 35 33 33 c49 50 129 110 199 147 53 29 64 32 71 19 5 -9 7 -17 5 -18z
m897 -61 c61 -44 152 -131 144 -139 -2 -2 -21 -15 -42 -29 l-38 -26 -37 42
c-55 63 -121 123 -180 164 l-52 36 21 23 22 23 51 -26 c28 -14 78 -45 111 -68z
m-847 31 c20 -13 54 -29 75 -36 26 -8 37 -17 33 -26 -14 -36 -56 -183 -62
-218 l-7 -38 -53 6 c-104 12 -154 27 -154 45 0 23 65 131 124 205 27 33 37 50
21 36 -36 -33 -106 -133 -139 -197 -24 -49 -28 -52 -51 -43 -45 17 -85 40 -85
49 0 26 223 234 258 240 1 1 19 -10 40 -23z m727 -57 c55 -40 165 -152 165
-168 0 -9 -77 -42 -132 -55 -26 -6 -30 -2 -62 61 -38 77 -124 198 -133 189 -4
-3 5 -19 19 -34 46 -50 128 -191 128 -220 0 -9 -124 -32 -169 -32 -14 0 -23
18 -41 88 -13 48 -31 106 -42 130 -10 24 -18 45 -18 46 0 2 26 9 58 16 31 7
73 20 92 30 39 20 37 20 135 -51z m-509 1 l54 0 0 -135 0 -135 -110 0 c-60 0
-110 4 -110 9 0 19 49 199 65 234 11 28 20 37 31 33 9 -3 40 -6 70 -6z m229
-42 c24 -61 64 -215 57 -222 -3 -3 -52 -6 -109 -6 l-103 0 0 135 0 135 69 0
69 0 17 -42z m-787 -98 l22 -29 -21 -36 c-12 -20 -37 -70 -55 -113 -20 -44
-39 -76 -47 -74 -6 1 -25 17 -41 35 -17 19 -24 24 -17 11 6 -12 24 -33 40 -47
l30 -25 -15 -53 c-7 -30 -17 -91 -20 -136 -4 -46 -10 -83 -14 -83 -10 0 -94
55 -107 71 -24 29 28 208 95 333 42 78 110 176 121 176 4 0 17 -13 29 -30z
m1394 -47 c25 -38 55 -87 66 -109 l21 -41 -22 -20 c-38 -35 -78 -56 -86 -47
-4 5 -15 30 -25 55 -9 25 -32 72 -51 104 -19 31 -35 60 -35 64 1 6 71 59 81
60 4 1 27 -29 51 -66z m-1302 -20 c36 -18 50 -31 47 -42 -3 -9 -16 -56 -31
-105 -14 -48 -26 -97 -26 -107 0 -25 -8 -24 -76 6 -88 39 -87 37 -59 112 27
70 76 163 87 163 3 0 29 -12 58 -27z m1186 -25 c14 -22 40 -73 56 -111 29 -68
29 -71 12 -84 -18 -13 -205 -77 -209 -71 -1 2 -7 35 -14 73 -7 39 -20 95 -30
125 l-17 55 76 26 c41 15 81 27 87 28 7 0 25 -18 39 -41z m-988 -33 c40 -7 76
-15 78 -18 3 -3 1 -40 -5 -82 -6 -42 -11 -93 -11 -113 0 -60 -5 -62 -100 -46
-109 19 -160 34 -160 48 0 21 31 141 47 189 17 46 19 48 48 42 16 -4 63 -12
103 -20z m783 -12 c23 -59 53 -213 44 -222 -16 -16 -216 -40 -220 -27 -7 28
-25 239 -20 244 5 5 131 28 168 31 11 1 22 -10 28 -26z m-518 -13 l57 0 0 -74
c0 -41 5 -78 10 -81 6 -4 10 23 10 73 l0 79 107 6 c58 4 108 6 110 4 6 -7 21
-103 28 -179 l7 -78 -46 0 c-28 0 -46 -5 -46 -11 0 -8 14 -10 44 -6 l44 6 7
-92 c4 -51 5 -105 3 -122 l-3 -30 -127 -3 -128 -3 0 121 0 120 78 2 77 2 -77
3 -78 4 0 46 c0 26 -3 43 -7 39 -9 -9 -10 -14 -12 -56 l-1 -30 -64 0 c-34 0
-91 3 -125 6 l-61 7 0 38 c0 41 18 185 26 208 3 10 17 12 57 7 28 -3 78 -6
110 -6z m961 -137 c37 -111 49 -182 34 -200 -13 -16 -101 -63 -117 -63 -5 0
-12 21 -16 48 -3 26 -13 85 -21 132 l-16 85 23 15 c13 8 35 25 49 37 14 12 28
23 32 23 3 0 18 -35 32 -77z m-1517 -35 c66 -30 73 -36 74 -63 l2 -30 4 28 c4
26 7 28 31 22 32 -8 141 -30 195 -39 l37 -7 0 -119 0 -120 -31 0 c-16 0 -77 7
-135 16 l-104 17 -2 86 -2 86 -3 -83 -4 -83 -32 7 c-18 3 -57 14 -87 23 l-55
17 -3 44 c-4 48 25 230 36 230 4 0 40 -15 79 -32z m1383 -34 c7 -31 15 -90 19
-131 8 -87 16 -80 -124 -114 -125 -30 -125 -30 -125 39 0 31 -3 87 -6 123 l-7
66 84 26 c46 15 91 31 99 37 34 22 48 12 60 -46z m-250 -57 c0 -19 3 -74 6
-124 l7 -90 -54 -11 -54 -11 50 4 50 4 -7 -107 c-5 -62 -14 -111 -21 -118 -10
-10 -159 -34 -207 -34 -17 0 -5 220 13 233 9 7 9 10 0 14 -10 3 -13 38 -13
122 l0 118 88 15 c140 24 142 24 142 -15z m-604 -7 l84 0 0 -120 0 -120 -114
0 c-63 0 -121 3 -130 6 -13 5 -16 26 -16 126 l0 121 46 -7 c26 -3 84 -6 130
-6z m-690 -131 c29 -15 30 -18 32 -100 1 -46 5 -96 8 -111 7 -35 -1 -35 -51
-2 -90 60 -104 93 -90 219 l7 66 32 -28 c18 -15 46 -35 62 -44z m1731 -72 c-3
-44 -10 -74 -21 -86 -14 -16 -125 -81 -137 -81 -2 0 0 50 6 111 l10 111 57 29
c31 16 60 34 64 41 14 22 26 -53 21 -125z m-1419 -18 c63 -10 129 -19 148 -19
19 0 36 -6 39 -12 2 -7 5 -62 7 -121 l4 -109 -46 7 c-190 26 -202 29 -211 49
-5 12 -13 62 -18 111 l-10 90 4 -107 5 -107 -53 16 c-110 32 -124 41 -131 81
-3 20 -6 71 -6 113 l0 77 77 -25 c42 -13 128 -33 191 -44z m1257 -6 c-13 -153
-12 -150 -53 -166 -45 -18 -213 -59 -218 -54 -4 4 16 220 21 225 2 2 41 12 87
22 45 10 94 23 108 29 57 23 62 17 55 -56z m-847 -29 l52 -7 0 -115 0 -115
-121 6 c-67 3 -123 8 -125 10 -3 2 -7 54 -11 115 l-6 112 79 0 c43 0 103 -3
132 -6z m325 -96 c-3 -57 -9 -109 -12 -116 -4 -7 -5 -29 -2 -50 5 -37 5 -37
10 -7 l6 30 109 12 c60 7 111 11 113 9 5 -4 -44 -197 -52 -204 -2 -2 -25 -7
-50 -9 -25 -3 -48 -9 -50 -13 -3 -4 16 -5 40 -2 30 3 45 1 45 -7 0 -15 -46
-107 -72 -144 -11 -16 -18 -30 -15 -33 7 -7 71 100 92 154 11 27 23 42 35 42
10 0 62 11 116 25 53 14 100 23 102 20 9 -9 -65 -123 -113 -171 -48 -49 -53
-52 -130 -64 -108 -17 -112 -17 -190 -25 -64 -7 -68 -7 -61 11 4 11 17 54 28
96 21 76 22 78 57 84 56 9 59 12 12 13 -42 1 -43 2 -39 30 2 17 1 28 -4 25 -4
-3 -8 -11 -8 -19 0 -34 -29 -45 -126 -45 l-94 0 0 105 0 105 112 0 c61 0 109
3 105 6 -3 4 -54 6 -112 5 l-105 -2 0 115 0 115 48 4 c26 2 84 4 129 5 l81 2
-5 -102z m-1024 -23 c13 -4 24 -25 35 -71 9 -36 25 -87 35 -115 11 -27 17 -49
15 -49 -3 0 -22 9 -43 20 -57 28 -102 70 -118 107 -12 30 -43 161 -43 184 0 5
23 -8 50 -30 28 -22 59 -42 69 -46z m1696 43 c-3 -24 -15 -75 -27 -114 -19
-68 -22 -72 -76 -105 -68 -41 -112 -61 -112 -50 0 5 6 24 14 42 8 19 22 66 31
105 17 70 18 72 65 94 26 12 60 33 76 46 16 13 31 23 32 24 2 0 1 -19 -3 -42z
m-185 -136 c-26 -93 -50 -152 -62 -152 -5 0 -6 -4 -3 -10 3 -5 0 -7 -8 -4 -7
2 -47 -4 -88 -15 -41 -10 -89 -22 -107 -25 -31 -5 -33 -4 -26 17 4 12 17 60
29 106 l21 85 90 22 c49 13 107 29 129 37 22 8 41 14 42 13 2 -2 -6 -35 -17
-74z m-1368 38 c76 -24 77 -24 84 -63 3 -22 17 -71 30 -109 21 -62 21 -69 6
-64 -9 2 -49 14 -88 25 l-71 21 -21 57 c-41 112 -51 167 -29 161 6 -2 47 -15
89 -28z m254 -52 l91 -12 16 -100 c9 -55 14 -102 12 -104 -10 -10 -207 22
-220 35 -13 12 -42 98 -60 177 -6 29 -6 29 32 22 21 -3 79 -11 129 -18z m354
-123 l0 -105 -79 0 c-43 0 -92 3 -109 6 -29 6 -30 8 -42 88 -6 44 -13 89 -15
99 -3 15 8 17 121 17 l124 0 0 -105z m-699 0 c38 -20 54 -36 79 -83 17 -32 51
-82 76 -110 25 -29 40 -52 34 -52 -31 0 -141 64 -176 102 -34 37 -124 192
-124 213 0 4 14 -5 31 -20 18 -14 53 -37 80 -50z m1548 -17 c-24 -46 -60 -101
-81 -124 -21 -23 -35 -43 -33 -46 9 -8 -125 -130 -189 -172 -56 -37 -157 -75
-236 -90 -30 -5 -26 0 35 35 38 22 103 67 143 100 41 32 81 59 88 59 16 0 156
61 151 66 -2 2 -36 -10 -76 -27 -40 -17 -74 -29 -76 -27 -2 2 17 30 42 63 25
33 59 83 75 112 21 38 38 55 61 62 18 6 55 26 82 45 28 19 52 32 53 31 2 -2
-16 -41 -39 -87z m-1382 -45 c62 -15 65 -17 90 -67 14 -28 41 -73 60 -99 19
-27 33 -51 31 -53 -2 -2 -30 3 -62 10 -68 16 -98 42 -167 144 -52 78 -59 98
-32 88 9 -4 45 -14 80 -23z m206 -37 c53 -7 99 -15 100 -17 2 -2 17 -46 33
-97 l30 -93 -70 7 c-39 4 -79 11 -88 15 -35 19 -141 199 -116 199 7 -1 57 -7
111 -14z m331 -32 c12 -31 7 -184 -6 -185 -10 0 -10 -2 0 -6 8 -3 12 -29 12
-79 0 -77 -4 -83 -45 -67 -17 6 -95 117 -95 135 0 4 18 8 40 8 22 0 40 5 40
10 0 6 -22 10 -49 10 l-50 0 -19 53 c-18 47 -23 63 -38 120 -5 15 4 17 99 17
86 0 106 -3 111 -16z m219 -6 c-18 -78 -46 -160 -56 -163 -7 -2 -42 -6 -79 -9
l-68 -7 0 101 0 100 104 0 c103 0 104 0 99 -22z m-739 -118 c22 -7 58 -29 80
-50 52 -46 95 -76 171 -118 53 -29 56 -32 25 -26 -79 15 -159 46 -217 85 -35
22 -63 45 -63 50 0 5 -6 9 -13 9 -7 0 -37 25 -67 56 l-55 56 50 -25 c28 -13
68 -30 89 -37z m139 -36 c33 -5 54 -18 97 -59 30 -29 75 -67 99 -84 53 -38 49
-39 -25 -6 -93 41 -305 190 -231 162 10 -4 37 -10 60 -13z m871 -5 c-49 -54
-256 -169 -306 -169 -18 0 -15 6 23 38 24 20 61 55 81 77 33 36 45 42 120 56
46 9 87 17 92 18 5 0 1 -8 -10 -20z m-691 -19 c32 0 41 -5 55 -31 9 -18 32
-51 49 -75 30 -40 31 -44 12 -44 -38 0 -162 81 -214 140 l-20 23 40 -6 c22 -4
57 -7 78 -7z m471 -41 c-56 -58 -128 -109 -154 -109 -20 0 -21 2 -9 16 8 9 28
42 44 73 l30 56 60 5 c33 3 62 4 64 2 3 -1 -13 -21 -35 -43z m-114 24 c0 -5
-15 -35 -34 -68 -21 -39 -42 -63 -59 -69 -15 -6 -28 -8 -30 -5 -3 2 -7 37 -10
77 l-6 72 70 0 c38 0 69 -3 69 -7z m189 -127 c-7 -7 -166 -46 -186 -45 -30 1
24 20 97 34 75 14 95 17 89 11z m-469 -32 l35 -14 -38 6 c-21 4 -57 13 -80 20
l-42 14 45 -6 c24 -4 60 -13 80 -20z m140 -4 c0 -5 -4 -10 -9 -10 -6 0 -13 5
-16 10 -3 6 1 10 9 10 9 0 16 -4 16 -10z m35 0 c-3 -5 -10 -10 -16 -10 -5 0
-9 5 -9 10 0 6 7 10 16 10 8 0 12 -4 9 -10z"/>
<path d="M2813 2633 c9 -2 23 -2 30 0 6 3 -1 5 -18 5 -16 0 -22 -2 -12 -5z"/>
<path d="M2712 2270 c0 -19 2 -27 5 -17 2 9 2 25 0 35 -3 9 -5 1 -5 -18z"/>
<path d="M1657 1533 c-32 -61 -24 -95 43 -169 33 -36 60 -73 60 -83 1 -29 50
37 50 67 0 37 -30 83 -79 123 -24 19 -45 46 -49 63 l-9 31 -16 -32z"/>
<path d="M2435 1503 c-32 -8 -55 -34 -55 -63 0 -33 13 -45 65 -62 21 -7 40
-19 43 -25 6 -20 -28 -28 -62 -15 -24 10 -33 9 -44 -2 -12 -12 -10 -17 14 -32
40 -27 101 -24 125 5 38 47 14 96 -53 110 -21 4 -34 14 -36 25 -4 17 1 18 41
13 34 -5 46 -3 50 8 10 25 -44 48 -88 38z"/>
<path d="M2750 1400 l0 -110 25 0 c22 0 24 4 27 58 3 53 5 57 28 57 23 0 25
-4 28 -57 3 -50 6 -58 22 -58 18 0 20 7 20 69 0 80 -12 97 -65 88 -34 -6 -35
-5 -35 29 0 30 -3 34 -25 34 l-25 0 0 -110z"/>
<path d="M2113 1483 c-7 -2 -13 -11 -13 -19 0 -8 -7 -14 -15 -14 -8 0 -15 -7
-15 -15 0 -9 7 -18 15 -21 10 -4 15 -21 15 -55 0 -40 4 -51 25 -65 29 -19 65
-10 65 16 0 12 -8 20 -22 22 -19 2 -24 10 -26 41 -3 34 -1 37 22 37 19 0 26 5
26 20 0 15 -7 20 -25 20 -18 0 -25 5 -25 20 0 20 -5 23 -27 13z"/>
<path d="M1921 1424 c-68 -86 44 -189 117 -108 47 53 12 134 -58 134 -30 0
-43 -6 -59 -26z m87 -55 c2 -26 -2 -38 -12 -42 -30 -12 -46 4 -46 45 0 37 2
39 28 36 23 -3 27 -8 30 -39z"/>
<path d="M2230 1430 c-26 -26 -27 -89 -2 -120 22 -28 85 -32 109 -7 23 23 4
44 -25 28 -23 -13 -48 -6 -56 15 -4 11 6 14 49 14 51 0 55 2 55 23 0 12 -7 33
-16 45 -20 29 -85 31 -114 2z m78 -27 c2 -8 -6 -13 -22 -13 -25 0 -33 10 -19
24 10 10 36 3 41 -11z"/>
<path d="M2570 1335 c0 -108 1 -115 20 -115 17 0 20 7 20 40 0 38 1 40 21 30
50 -27 108 37 92 102 -13 51 -70 77 -101 46 -9 -9 -12 -9 -12 0 0 7 -9 12 -20
12 -19 0 -20 -7 -20 -115z m104 59 c18 -47 -17 -90 -48 -58 -28 28 -16 74 19
74 13 0 26 -7 29 -16z"/>
<path d="M2951 1424 c-45 -58 -9 -136 63 -136 45 0 77 25 58 44 -9 9 -17 9
-36 -2 -21 -11 -28 -11 -41 0 -26 22 -17 30 35 30 48 0 50 1 50 28 0 62 -89
87 -129 36z m79 -19 c11 -13 8 -15 -20 -15 -28 0 -31 2 -20 15 7 8 16 15 20
15 4 0 13 -7 20 -15z"/>
<path d="M3110 1369 c0 -77 1 -79 25 -79 22 0 24 4 27 57 3 49 6 58 23 62 19
3 35 18 35 33 0 4 -25 7 -55 7 l-55 0 0 -80z"/>
<path d="M3251 1424 c-23 -30 -27 -64 -10 -97 16 -30 28 -37 70 -37 43 0 83
33 53 44 -9 3 -22 1 -30 -5 -16 -13 -50 -4 -58 16 -4 12 5 15 49 15 51 0 55 2
55 23 0 67 -87 94 -129 41z m79 -19 c11 -13 8 -15 -19 -15 -30 0 -39 9 -24 23
11 11 30 8 43 -8z"/>
</g>
</svg>
